<svg width="66" height="66" viewBox="0 0 66 66" fill="none" xmlns="http://www.w3.org/2000/svg">
<path d="M33 0C29.3549 0 26.4 2.95487 26.4 6.6C26.4 10.2451 29.3549 13.2 33 13.2C36.6436 13.1964 39.5964 10.2436 39.6 6.6C39.6 2.95487 36.6451 0 33 0ZM33 11C30.57 11 28.6 9.03004 28.6 6.6C28.6 4.16996 30.57 2.2 33 2.2C35.43 2.2 37.4 4.16996 37.4 6.6C37.4 9.03004 35.43 11 33 11Z" fill="#3C55A5"/>
<path d="M37.4 14.3H37.1404L36.9083 14.4155C34.4469 15.6411 31.5531 15.6411 29.0917 14.4155L28.8596 14.3H28.6C25.564 14.3036 23.1036 16.764 23.1 19.8V26.4C23.1 28.2226 24.5774 29.7 26.4 29.7H39.6C41.4226 29.7 42.9 28.2226 42.9 26.4V19.8C42.8964 16.764 40.436 14.3036 37.4 14.3ZM40.7 26.4C40.7 27.0075 40.2075 27.5 39.6 27.5H26.4C25.7925 27.5 25.3 27.0075 25.3 26.4V19.8C25.3003 18.0686 26.6386 16.6318 28.3657 16.5088C31.3048 17.8728 34.6954 17.8728 37.6343 16.5088C39.3613 16.6318 40.6997 18.0686 40.7 19.8V26.4Z" fill="#3C55A5"/>
<path d="M56.1 36.3C52.4549 36.3 49.5 39.2549 49.5 42.9C49.5 46.5452 52.4549 49.5 56.1 49.5C59.7451 49.5 62.7 46.5452 62.7 42.9C62.6964 39.2564 59.7436 36.3036 56.1 36.3ZM56.1 47.3C53.67 47.3 51.7 45.3301 51.7 42.9C51.7 40.47 53.67 38.5 56.1 38.5C58.53 38.5 60.5 40.47 60.5 42.9C60.5 45.3301 58.53 47.3 56.1 47.3Z" fill="#3C55A5"/>
<path d="M60.5 50.6H60.2404L60.0083 50.71C57.5469 51.9354 54.6531 51.9354 52.1917 50.71L51.9596 50.6H51.7C48.664 50.6036 46.2036 53.064 46.2 56.1V62.7C46.2 64.5225 47.6774 66 49.5 66H62.7C64.5226 66 66 64.5225 66 62.7V56.1C65.9964 53.064 63.536 50.6036 60.5 50.6ZM63.8 62.7C63.8 63.3075 63.3075 63.8 62.7 63.8H49.5C48.8925 63.8 48.4 63.3075 48.4 62.7V56.1C48.4003 54.3686 49.7386 52.9317 51.4657 52.8088C54.4048 54.1728 57.7952 54.1728 60.7343 52.8088C62.4614 52.9317 63.7997 54.3686 63.8 56.1V62.7Z" fill="#3C55A5"/>
<path d="M9.9 36.3C6.25487 36.3 3.3 39.2549 3.3 42.9C3.3 46.5452 6.25487 49.5 9.9 49.5C13.5451 49.5 16.5 46.5452 16.5 42.9C16.4964 39.2564 13.5436 36.3036 9.9 36.3ZM9.9 47.3C7.46996 47.3 5.5 45.3301 5.5 42.9C5.5 40.47 7.46996 38.5 9.9 38.5C12.33 38.5 14.3 40.47 14.3 42.9C14.3 45.3301 12.33 47.3 9.9 47.3Z" fill="#3C55A5"/>
<path d="M14.3 50.6H14.0404L13.8083 50.71C11.3469 51.9354 8.45309 51.9354 5.9917 50.71L5.7596 50.6H5.5C2.464 50.6036 0.003575 53.064 0 56.1V62.7C0 64.5225 1.47744 66 3.3 66H16.5C18.3226 66 19.8 64.5225 19.8 62.7V56.1C19.7964 53.064 17.336 50.6036 14.3 50.6ZM17.6 62.7C17.6 63.3075 17.1075 63.8 16.5 63.8H3.3C2.69252 63.8 2.2 63.3075 2.2 62.7V56.1C2.20027 54.3686 3.53856 52.9317 5.2657 52.8088C8.20476 54.1728 11.5952 54.1728 14.5343 52.8088C16.2614 52.9317 17.5997 54.3686 17.6 56.1V62.7Z" fill="#3C55A5"/>
<path d="M43.9136 55.863C43.9131 55.8617 43.9125 55.8605 43.912 55.8591C43.6738 55.3002 43.0277 55.0402 42.4689 55.2783C37.5017 57.3601 31.9852 57.7399 26.7796 56.3585L27.8092 56.056C28.3925 55.8853 28.7269 55.2742 28.5561 54.6909C28.3853 54.1077 27.7743 53.7733 27.191 53.944L22.791 55.2343C22.7745 55.2343 22.7624 55.253 22.747 55.2585C22.6451 55.2965 22.5494 55.3496 22.4632 55.4158C22.425 55.4365 22.3883 55.4596 22.3532 55.4851C22.2372 55.5887 22.1452 55.7163 22.0837 55.8591C22.024 56.003 21.9956 56.1578 22.0001 56.3134C22.0269 56.4623 22.0636 56.6093 22.1101 56.7534C22.1167 56.7688 22.1101 56.7864 22.1222 56.8018L24.3222 61.0115C24.6036 61.5504 25.2684 61.7593 25.8072 61.4779C26.3461 61.1966 26.5549 60.5318 26.2736 59.9929L25.3782 58.2813C31.2927 60.0592 37.6425 59.7137 43.3291 57.3045C43.8885 57.0679 44.1503 56.4225 43.9136 55.863Z" fill="#3C55A5"/>
<path d="M62.3777 28.9223C61.9481 28.4929 61.2518 28.4929 60.8223 28.9223L59.2658 30.4788C58.355 20.8442 52.238 12.4833 43.3312 8.6988C42.7722 8.46065 42.1261 8.72066 41.888 9.2796C41.6498 9.83854 41.9098 10.4846 42.4688 10.7228C50.4589 14.1186 56.0131 21.5398 57.0185 30.1631L55.7777 28.9223C55.3407 28.5002 54.6444 28.5123 54.2223 28.9492C53.8106 29.3755 53.8106 30.0513 54.2223 30.4777L57.5223 33.7777C57.9513 34.2078 58.6478 34.2088 59.0779 33.7796C59.0786 33.7789 59.0793 33.7782 59.0799 33.7777L62.3799 30.4777C62.8087 30.0476 62.8078 29.3513 62.3777 28.9223Z" fill="#3C55A5"/>
<path d="M24.1681 9.52494C24.1645 9.46073 24.155 9.39706 24.1395 9.33464C24.1395 9.32474 24.1274 9.31814 24.123 9.30714C24.1186 9.29614 24.123 9.28844 24.123 9.27964C24.093 9.22615 24.0584 9.17528 24.0196 9.12784C23.984 9.06335 23.9419 9.00258 23.8942 8.94634C23.8292 8.88873 23.7571 8.83964 23.6797 8.80004C23.6411 8.76718 23.5998 8.73734 23.5565 8.71094L19.1565 6.70124C18.5945 6.47051 17.9519 6.73905 17.7211 7.30101C17.5029 7.83245 17.7305 8.4424 18.2435 8.70104L20.5216 9.74274C11.9453 14.3326 6.5938 23.2727 6.59999 33C6.59999 33.6075 7.09252 34.1 7.69999 34.1C8.30747 34.1 8.79999 33.6075 8.79999 33C8.79449 24.4348 13.3239 16.5066 20.7053 12.1616L19.91 13.8237C19.6478 14.3706 19.8775 15.0265 20.4237 15.29C20.5721 15.3625 20.7349 15.4002 20.9 15.4C21.3224 15.3995 21.7071 15.1571 21.89 14.7763L24.09 10.186C24.09 10.175 24.09 10.1629 24.0988 10.1519C24.1274 10.0767 24.1473 9.99849 24.1582 9.91874C24.177 9.85948 24.1911 9.79884 24.2 9.73724C24.1963 9.6656 24.1857 9.59452 24.1681 9.52494Z" fill="#3C55A5"/>
</svg>
