<svg width="66" height="66" viewBox="0 0 66 66" fill="none" xmlns="http://www.w3.org/2000/svg">
<g clip-path="url(#clip0)">
<path d="M55.306 51.1713L33.7254 44.0857C33.8409 42.6072 33.1959 41.171 32.0138 40.2752C30.8322 39.3794 29.2752 39.1468 27.8826 39.6576L12.814 26.6368C12.5659 26.422 12.2351 26.3296 11.9117 26.3839C11.5884 26.4381 11.3059 26.6341 11.1421 26.9182L9.44819 29.8603C6.43146 28.733 3.04201 29.9516 1.43401 32.7422L0.884054 33.6939C0.00433105 35.2176 -0.230369 37.0302 0.232049 38.7284C0.695005 40.4261 1.81641 41.8692 3.34814 42.7361L20.1413 51.3442C19.833 52.638 20.1257 54.0017 20.9378 55.0554L17.4742 61.0545C17.2518 61.4396 17.283 61.9208 17.5542 62.2742C17.8249 62.627 18.2819 62.7822 18.7116 62.6668L22.1574 61.743L23.0807 65.1889C23.1956 65.618 23.5576 65.9354 23.998 65.9939C24.0458 66.0004 24.0936 66.0036 24.1419 66.0041C24.5351 66.0041 24.8987 65.7947 25.0958 65.4542L29.8386 57.2386L41.4018 64.7082C42.9185 65.5841 44.7214 65.8215 46.4132 65.3677C48.105 64.9139 49.547 63.8059 50.4213 62.2881L50.9713 61.337L55.921 52.7632C56.0864 52.4758 56.1138 52.13 55.9956 51.8201C55.8769 51.5107 55.625 51.2712 55.3103 51.1681L55.306 51.1713ZM30.4477 41.8751C31.4993 42.4826 31.8596 43.8279 31.2517 44.8801L26.302 53.4592C25.6908 54.5028 24.3519 54.8567 23.3046 54.2519C22.2573 53.6472 21.8943 52.3104 22.492 51.2594L27.4417 42.6867C27.7322 42.1786 28.2135 41.8069 28.779 41.6549C29.344 41.5024 29.9466 41.5819 30.453 41.8751H30.4477ZM12.387 29.1707L23.4018 38.6919L11.3741 30.9243L12.387 29.1707ZM2.34918 38.1328C2.04466 37.0055 2.2031 35.8035 2.78905 34.7939L3.33901 33.8422C4.54312 31.7556 7.20055 31.0252 9.30157 32.2036L25.077 42.3907L21.0645 49.342L4.39811 40.8037C3.38573 40.2231 2.6478 39.2612 2.34918 38.1328ZM24.5168 62.054L23.998 60.1114C23.8406 59.5249 23.2375 59.1763 22.6505 59.3342L20.7068 59.8541L22.6977 56.4072C24.2644 57.0694 26.0732 56.7638 27.3348 55.6231L27.9873 56.0431L24.5168 62.054ZM42.549 62.8316L28.6265 53.8379L32.7501 46.6959L47.4513 54.2348C49.5556 55.4496 50.2769 58.1403 49.062 60.2446L48.5121 61.1963C47.3069 63.2812 44.6494 64.0105 42.549 62.8316ZM51.5046 56.0125C51.0057 54.4421 49.9353 53.1171 48.5051 52.2992L42.8272 49.3952L53.3339 52.8443L51.5046 56.0125Z" fill="#3C55A5"/>
<path d="M64.5753 12.1079L65.94 7.89084C66.1065 7.37525 65.8734 6.81509 65.39 6.57072L61.4469 4.55563L59.4307 0.608156C59.1863 0.124792 58.6262 -0.108834 58.1106 0.0581955L53.8946 1.42773L49.6764 0.062492C49.1614 -0.104 48.6012 0.129089 48.3568 0.612453L46.3428 4.55563L42.3953 6.57179C42.3776 6.58146 42.3653 6.59811 42.3481 6.60831H23.0967C20.0612 6.61154 17.6009 9.07186 17.5971 12.1079V27.2318C17.5971 27.8393 18.0896 28.3318 18.6971 28.3318C19.305 28.3318 19.797 27.8393 19.797 27.2318V12.1079C19.797 10.2851 21.2745 8.80816 23.0967 8.80816H42.1467L43.2144 12.1079L41.8497 16.325C41.6826 16.8401 41.9163 17.4002 42.3996 17.6446L46.3471 19.6608L48.3633 23.6082C48.6076 24.0916 49.1678 24.3252 49.6834 24.1582L53.8946 22.7881L54.9945 23.1442V47.3054C54.9945 47.9128 55.487 48.4053 56.0944 48.4053C56.7024 48.4053 57.1943 47.9128 57.1943 47.3054V23.8558L58.1133 24.1528C58.6283 24.3198 59.1885 24.0862 59.4328 23.6029L61.449 19.6554L65.3965 17.6392C65.8798 17.3949 66.1135 16.8347 65.9464 16.3191L64.5753 12.1079ZM62.3755 12.4463L63.5608 16.1102L60.1316 17.8626C59.9253 17.9679 59.7578 18.136 59.653 18.3422L57.8984 21.7714L54.2335 20.5861C54.0138 20.5142 53.7769 20.5142 53.5573 20.5861L49.8923 21.7714L48.1398 18.3422C48.0346 18.1355 47.867 17.9679 47.6602 17.8626L44.231 16.1102L45.4164 12.4463C45.4894 12.2266 45.4894 11.9887 45.4164 11.769L44.231 8.10513L47.6602 6.35267C47.867 6.2474 48.0346 6.07984 48.1398 5.8736L49.8923 2.44387L53.5573 3.62972C53.7769 3.70115 54.0138 3.70115 54.2335 3.62972L57.8984 2.44387L59.6509 5.8736C59.7556 6.0793 59.9232 6.2474 60.1294 6.35267L63.5586 8.10513L62.3728 11.769C62.3019 11.9892 62.3019 12.2261 62.3728 12.4463H62.3755Z" fill="#3C55A5"/>
<path d="M53.8946 6.60828C50.8574 6.60828 48.395 9.07021 48.395 12.1079C48.395 15.145 50.8574 17.6075 53.8946 17.6075C56.9322 17.6075 59.3942 15.145 59.3942 12.1079C59.391 9.07182 56.9306 6.6115 53.8946 6.60828ZM53.8946 15.4076C52.0723 15.4076 50.5948 13.9302 50.5948 12.1079C50.5948 10.2851 52.0723 8.80812 53.8946 8.80812C55.7174 8.80812 57.1943 10.2851 57.1943 12.1079C57.1943 13.9302 55.7174 15.4076 53.8946 15.4076Z" fill="#3C55A5"/>
<path d="M27.4964 28.6067H46.1951C46.8031 28.6067 47.295 28.1142 47.295 27.5068C47.295 26.8994 46.8031 26.4069 46.1951 26.4069H27.4964C26.889 26.4069 26.3965 26.8994 26.3965 27.5068C26.3965 28.1142 26.889 28.6067 27.4964 28.6067Z" fill="#3C55A5"/>
<path d="M46.1951 31.9065H30.7962C30.1888 31.9065 29.6963 32.399 29.6963 33.0064C29.6963 33.6138 30.1888 34.1063 30.7962 34.1063H46.1951C46.8031 34.1063 47.295 33.6138 47.295 33.0064C47.295 32.399 46.8031 31.9065 46.1951 31.9065Z" fill="#3C55A5"/>
<path d="M46.1951 37.4061H38.4956C37.8882 37.4061 37.3957 37.8986 37.3957 38.506C37.3957 39.1135 37.8882 39.606 38.4956 39.606H46.1951C46.8031 39.606 47.295 39.1135 47.295 38.506C47.295 37.8986 46.8031 37.4061 46.1951 37.4061Z" fill="#3C55A5"/>
<path d="M29.6963 17.6076H36.2958C36.9038 17.6076 37.3957 17.1151 37.3957 16.5076C37.3957 15.9002 36.9038 15.4077 36.2958 15.4077H29.6963C27.874 15.4077 26.3965 16.8847 26.3965 18.7075C26.3965 20.5298 27.874 22.0072 29.6963 22.0072H36.2958C36.9038 22.0072 37.3957 21.5148 37.3957 20.9073C37.3957 20.2999 36.9038 19.8074 36.2958 19.8074H29.6963C29.0889 19.8074 28.5964 19.3149 28.5964 18.7075C28.5964 18.1001 29.0889 17.6076 29.6963 17.6076Z" fill="#3C55A5"/>
</g>
<defs>
<clipPath id="clip0">
<rect width="66" height="66" fill="white"/>
</clipPath>
</defs>
</svg>
