<svg width="32" height="30" viewBox="0 0 32 30" fill="none" xmlns="http://www.w3.org/2000/svg">
<path d="M31.0832 14.6298C30.5739 14.6298 30.1664 15.0373 30.1664 15.5467V23.8862C30.1664 26.1545 28.3192 27.9949 26.0577 27.9949H5.94228C3.67402 27.9949 1.83362 26.1477 1.83362 23.8862V15.4108C1.83362 14.9015 1.42615 14.494 0.916808 14.494C0.40747 14.494 0 14.9015 0 15.4108V23.8862C0 27.1663 2.66893 29.8285 5.94228 29.8285H26.0577C29.3379 29.8285 32 27.1596 32 23.8862V15.5467C32 15.0441 31.5925 14.6298 31.0832 14.6298Z" fill="white"/>
<path d="M15.3548 22.5484C15.5314 22.725 15.7691 22.8201 16 22.8201C16.2309 22.8201 16.4686 22.7318 16.6452 22.5484L22.472 16.7216C22.8319 16.3617 22.8319 15.7844 22.472 15.4245C22.1121 15.0645 21.5348 15.0645 21.1749 15.4245L16.9168 19.6893V1.08832C16.9168 0.578979 16.5093 0.171509 16 0.171509C15.4907 0.171509 15.0832 0.578979 15.0832 1.08832V19.6893L10.8183 15.4245C10.4584 15.0645 9.88116 15.0645 9.52122 15.4245C9.16129 15.7844 9.16129 16.3617 9.52122 16.7216L15.3548 22.5484Z" fill="white"/>
</svg>
