<svg width="48" height="66" viewBox="0 0 48 66" fill="none" xmlns="http://www.w3.org/2000/svg">
<path d="M42.1905 42.2922L30.3871 38.6047V36.415C32.7397 34.8767 34.5004 32.5156 35.2722 29.7436C37.909 29.4286 39.9678 27.2037 39.9678 24.4839V12.9051C39.9678 9.97452 38.074 7.41329 35.3126 6.53506C32.5289 2.43987 27.9228 0 22.9653 0C14.7313 0 8.03227 6.699 8.03227 14.933V24.4839C8.03227 27.2037 10.091 29.4286 12.7279 29.7426C13.4986 32.5156 15.2603 34.8757 17.6129 36.4139V38.6036L5.80956 42.2922C2.68201 43.2694 0.580658 46.1287 0.580658 49.4053V66H47.4194V49.4053C47.4194 46.1287 45.318 43.2694 42.1905 42.2922ZM12.2903 63.871V50.0323H10.1613V63.871H2.70969V49.4053C2.70969 47.0644 4.21066 45.0226 6.44508 44.3254L15.5286 41.4874L16.5016 63.871H12.2903ZM35.665 27.4954C35.6873 27.2026 35.7097 26.911 35.7097 26.6129V21.4862C36.9456 21.9269 37.8387 23.0979 37.8387 24.4839C37.8387 25.8858 36.9243 27.0675 35.665 27.4954ZM10.1613 24.4839C10.1613 23.0979 11.0544 21.9269 12.2903 21.4862V26.6129C12.2903 26.911 12.3127 27.2026 12.335 27.4954C11.0757 27.0675 10.1613 25.8858 10.1613 24.4839ZM12.2903 15.9677V19.2688C11.4994 19.4306 10.783 19.7819 10.1613 20.2524V14.932C10.1613 7.87316 15.9054 2.12903 22.9653 2.12903C27.2564 2.12903 31.2387 4.26019 33.6179 7.82952L33.9873 8.38413L34.3865 8.48419C36.4197 8.99303 37.8387 10.8102 37.8387 12.9051V20.2535C37.217 19.783 36.5006 19.4306 35.7097 19.2699V13.8387L34.0065 15.1161C31.3633 17.0983 28.2379 18.3927 24.9677 18.86L24.4397 18.9356C24.6079 17.771 24.4237 16.5628 23.8882 15.4919L23.3177 14.3507L22.2968 15.1161C19.958 16.8705 17.2552 18.1638 14.4194 18.893V15.9677H12.2903ZM14.4194 26.6129V21.0859C17.2308 20.4291 19.9346 19.2667 22.3479 17.6805C22.4267 18.3842 22.3053 19.1059 21.9828 19.75L21.0737 21.5671L25.2679 20.9678C28.2112 20.5473 31.0482 19.5222 33.5796 17.9744V26.6129C33.5796 31.895 29.2811 36.1936 23.999 36.1936C18.7168 36.1936 14.4194 31.895 14.4194 26.6129ZM19.7419 38.8176V37.5093C21.0641 38.0277 22.4969 38.3226 24 38.3226C25.5031 38.3226 26.9359 38.0277 28.2581 37.5093V38.8176L24 41.6566L19.7419 38.8176ZM26.1312 45.6358L25.2977 48.9677H22.7024L21.8699 45.6358L24 44.2147L26.1312 45.6358ZM17.631 40.8295L18.5103 40.5549L22.0818 42.9351L17.845 45.7593L17.631 40.8295ZM18.819 63.871H18.6327L17.9525 48.246L19.9879 46.8887L20.7873 50.0876L18.819 63.871ZM20.9693 63.871L22.7939 51.0968H25.2061L27.0307 63.871H20.9693ZM29.3684 63.871H29.1821L27.2127 50.0887L28.0122 46.8898L30.0475 48.2471L29.3684 63.871ZM30.155 45.7593L25.9183 42.9351L29.4897 40.5549L30.369 40.8295L30.155 45.7593ZM35.7161 42.5008L39.6292 43.7239C39.2503 44.3147 38.5913 44.7097 37.8387 44.7097C36.6646 44.7097 35.7097 43.7548 35.7097 42.5806C35.7097 42.554 35.715 42.5274 35.7161 42.5008ZM31.4985 63.871L32.4725 41.4863L33.6435 41.8525C33.6019 42.092 33.5807 42.3347 33.5807 42.5806C33.5807 43.6249 33.9735 44.5702 34.5994 45.3111L33.5487 60.0217L37.398 63.871H31.4985ZM35.7416 59.2041L36.639 46.646C37.0222 46.7589 37.4193 46.8387 37.8387 46.8387C38.2581 46.8387 38.6552 46.7589 39.0384 46.645L39.9358 59.2041L37.8387 61.3012L35.7416 59.2041ZM45.2903 63.871H38.2794L42.1287 60.0217L41.078 45.3111C41.3176 45.0269 41.5251 44.7171 41.6848 44.3765C43.8447 45.1142 45.2903 47.1123 45.2903 49.4053V63.871Z" fill="#3C55A5"/>
</svg>
