<svg width="33" height="40" viewBox="0 0 33 40" fill="none" xmlns="http://www.w3.org/2000/svg">
<path d="M15.453 2C18.615 2 21.352 2.527 23.664 3.581C26.01 4.635 27.812 6.131 29.07 8.069C30.328 10.007 30.957 12.302 30.957 14.954C30.957 17.572 30.328 19.867 29.07 21.839C27.812 23.777 26.01 25.273 23.664 26.327C21.352 27.347 18.615 27.857 15.453 27.857H10.262V37.7H2V2H15.453ZM14.994 21.125C17.476 21.125 19.363 20.598 20.655 19.544C21.947 18.456 22.593 16.926 22.593 14.954C22.593 12.948 21.947 11.418 20.655 10.364C19.363 9.276 17.476 8.732 14.994 8.732H10.262V21.125H14.994Z" stroke="white" stroke-width="3"/>
</svg>
